<?xml version="1.0" encoding="UTF-8"?>
<svg version="1.1" xmlns="http://www.w3.org/2000/svg" width="225" height="225">
<path d="M0 0 C74.25 0 148.5 0 225 0 C225 74.25 225 148.5 225 225 C150.75 225 76.5 225 0 225 C0 150.75 0 76.5 0 0 Z " fill="#EFF1F3" transform="translate(0,0)"/>
<path d="M0 0 C1.3540519 -0.00810448 1.3540519 -0.00810448 2.73545837 -0.01637268 C5.72436135 -0.02889719 8.71230807 -0.01234418 11.70117188 0.00561523 C13.77478079 0.00546033 15.84839 0.00397283 17.92199707 0.00120544 C22.26990543 -0.00018022 26.61748458 0.01240762 30.96533203 0.03515625 C36.54435073 0.06354121 42.12282222 0.06080571 47.70188141 0.04806614 C51.98436168 0.04111802 56.26671501 0.04888834 60.54917908 0.06132317 C62.60651666 0.0658461 64.66386783 0.06616715 66.72120667 0.06225777 C69.59437085 0.05935407 72.46677543 0.07581227 75.33984375 0.09765625 C76.62102333 0.09090378 76.62102333 0.09090378 77.92808533 0.08401489 C83.71683507 0.1573053 83.71683507 0.1573053 85.88806343 1.80771542 C88.04196288 4.65412316 87.58548247 7.98481487 87.55810547 11.41381836 C87.56336243 12.21898392 87.56861938 13.02414948 87.57403564 13.85371399 C87.58725012 16.51782575 87.5784926 19.18134104 87.56835938 21.84545898 C87.5703797 23.69486608 87.57329079 25.5442724 87.57705688 27.39367676 C87.58148219 31.27074769 87.57504254 35.14761135 87.56103516 39.0246582 C87.54394314 43.99833422 87.55378321 48.97152461 87.57175255 53.9451828 C87.58258481 57.76442128 87.57914662 61.58354433 87.57136917 65.40278625 C87.56936562 67.23684242 87.57183187 69.07090901 87.57880783 70.904953 C87.58641318 73.46678494 87.57483139 76.02782664 87.55810547 78.58959961 C87.56417816 79.35021194 87.57025085 80.11082428 87.57650757 80.89448547 C87.51407838 86.04678851 87.51407838 86.04678851 85.88806343 88.19612312 C82.84564157 90.50800654 79.01461125 89.91601975 75.33984375 89.88989258 C73.98579185 89.89777802 73.98579185 89.89777802 72.60438538 89.90582275 C69.61563904 89.91904414 66.62742378 89.91027706 63.63867188 89.90014648 C61.56506243 89.9021666 59.49145368 89.90507752 57.41784668 89.90884399 C53.06999962 89.91327025 48.72233733 89.90682653 44.37451172 89.89282227 C38.79551232 89.8757303 33.21694585 89.88556986 27.63796234 89.90353966 C23.35549648 89.9143693 19.07313361 89.9109349 14.79066467 89.90315628 C12.73332163 89.90115201 10.67596929 89.90362148 8.61863708 89.91059494 C5.74550531 89.91819588 2.87307909 89.9066242 0 89.88989258 C-0.85411972 89.89596527 -1.70823944 89.90203796 -2.58824158 89.90829468 C-8.37837735 89.8456829 -8.37837735 89.8456829 -10.54821968 88.19332981 C-12.68686709 85.37103651 -12.24581131 82.0983381 -12.21826172 78.69726562 C-12.22351868 77.90345993 -12.22877563 77.10965424 -12.23419189 76.29179382 C-12.24740708 73.66495141 -12.23864779 71.03871394 -12.22851562 68.41186523 C-12.23053613 66.587274 -12.23344737 64.76268356 -12.23721313 62.93809509 C-12.24163871 59.11229776 -12.23519871 55.28671044 -12.22119141 51.4609375 C-12.20411147 46.55685967 -12.21393162 41.65327481 -12.2319088 36.74921513 C-12.24275069 32.98054797 -12.23929822 29.21199763 -12.23152542 25.44332695 C-12.22952391 23.63521707 -12.23198099 21.8270966 -12.23896408 20.0189991 C-12.24658391 17.49089617 -12.23496675 14.96359044 -12.21826172 12.43554688 C-12.22433441 11.68788055 -12.2304071 10.94021423 -12.23666382 10.16989136 C-12.20067319 7.22952164 -11.94037141 4.7812481 -10.85769653 2.03720093 C-7.56675439 -0.45499145 -3.96096835 -0.04483507 0 0 Z " fill="#697888" transform="translate(73.830078125,66.498291015625)"/>
<path d="M0 0 C26.07 0 52.14 0 79 0 C79 16.17 79 32.34 79 49 C74.75282417 45.35956358 70.92251155 42.02767964 67.1171875 38.0390625 C66.25996094 37.15605469 65.40273437 36.27304688 64.51953125 35.36328125 C62.74101313 33.52171374 60.97028277 31.67259635 59.20703125 29.81640625 C58.35238281 28.94113281 57.49773437 28.06585938 56.6171875 27.1640625 C55.85003418 26.36436035 55.08288086 25.5646582 54.29248047 24.74072266 C52.15863699 22.83600169 52.15863699 22.83600169 49.65512085 22.62728882 C46.01720212 23.13795973 44.78580191 24.61742733 42.22558594 27.22265625 C40.84956207 28.60408813 40.84956207 28.60408813 39.44573975 30.01342773 C38.4584233 31.02959586 37.4713064 32.0459579 36.484375 33.0625 C35.46375465 34.09498845 34.44194753 35.12630501 33.41900635 36.15649414 C30.73200058 38.86823578 28.0599185 41.59421133 25.39111328 44.32385254 C21.61937069 48.17611359 17.82756083 52.00864197 14.03814697 55.84350586 C12.01977329 57.88620598 10.00702039 59.93421024 7.99847412 61.98657227 C7.09373352 62.90752686 6.18899292 63.82848145 5.25683594 64.77734375 C4.0570108 66.00312134 4.0570108 66.00312134 2.83294678 67.25366211 C1 69 1 69 0 69 C0 46.23 0 23.46 0 0 Z " fill="#EDEFF1" transform="translate(72,77)"/>
<path d="M0 0 C4.00079356 2.4449294 5.65936873 3.95918222 7.125 8.4375 C6.97001806 12.85448522 5.85971159 14.67655139 3 18 C0.35985293 20.09390974 -1.01175464 20 -4.4375 20 C-9.0516797 18.70479166 -10.48877431 17.03318066 -13 13 C-13.59626815 9.34785761 -13.27796555 7.58240402 -11.6875 4.25 C-8.31800675 -0.24265767 -5.37893057 -0.6381782 0 0 Z " fill="#6A7989" transform="translate(95,87)"/>
</svg>
