<?xml version="1.0" encoding="UTF-8"?>
<svg version="1.1" xmlns="http://www.w3.org/2000/svg" width="1024" height="1024">
<path d="M0 0 C337.92 0 675.84 0 1024 0 C1024 337.92 1024 675.84 1024 1024 C686.08 1024 348.16 1024 0 1024 C0 686.08 0 348.16 0 0 Z " fill="#FEFEFE" transform="translate(0,0)"/>
<path d="M0 0 C11.01933348 7.98502426 16.79403512 18.40063958 18.98828125 31.70703125 C19.27787565 34.59000832 19.26669567 37.41667275 19.25 40.3125 C20.66478638 40.28893433 20.66478638 40.28893433 22.1081543 40.26489258 C25.62123148 40.21363993 29.13390898 40.17609009 32.6472168 40.14770508 C34.16518438 40.13265647 35.68310876 40.11221262 37.20092773 40.08618164 C39.38796677 40.04962347 41.57442896 40.03273477 43.76171875 40.01953125 C45.07615967 40.0038208 46.39060059 39.98811035 47.74487305 39.97192383 C52.72737186 40.45604905 56.05952908 42.50816779 59.25 46.3125 C62.30494117 56.35420797 62.11447873 67.91577456 62.87109375 78.34375 C63.0174699 80.30305814 63.16437773 82.26232662 63.31178284 84.22155762 C63.69836305 89.37596045 64.07870215 94.5308036 64.45739746 99.68579102 C65.05619429 107.82243931 65.66449264 115.95838538 66.27235794 124.09436035 C66.4954637 127.08530359 66.71726757 130.07634167 66.9390564 133.06738281 C67.63079102 142.3560157 68.34708294 151.64137673 69.14111328 160.921875 C69.2119579 161.75247185 69.28280252 162.5830687 69.35579395 163.43883514 C69.68471666 167.2809196 70.01960556 171.12233922 70.36460876 174.9630127 C72.14137626 195.10751662 72.14137626 195.10751662 70.0625 200.25 C67.13820014 203.57765156 64.47755972 205.90331343 60.25 207.3125 C58.01891093 207.41102722 55.78493851 207.44753359 53.55168152 207.45294189 C52.86731484 207.45591302 52.18294817 207.45888414 51.47784311 207.4619453 C49.17947097 207.47063248 46.88115093 207.47214056 44.58276367 207.47363281 C42.93690377 207.47826097 41.29104495 207.48328563 39.64518738 207.48867798 C35.16989869 207.50180418 30.694625 207.50824737 26.21932006 207.51268864 C23.4236854 207.51561901 20.62805485 207.51972375 17.83242226 207.52419281 C9.08654906 207.53786832 0.34068523 207.54753471 -8.40519792 207.5513947 C-18.50292731 207.55587573 -28.60052135 207.57342548 -38.69820958 207.6023953 C-46.50212374 207.62400763 -54.3059998 207.63409874 -62.10994357 207.63543582 C-66.77148208 207.63648417 -71.43289338 207.64239835 -76.09440041 207.66025543 C-80.4799318 207.67672836 -84.86524025 207.67889543 -89.25079155 207.67011642 C-90.85922467 207.66934563 -92.46766974 207.67369436 -94.07607269 207.68357468 C-96.27455727 207.69628637 -98.47225125 207.69042227 -100.67073059 207.67999268 C-102.51492443 207.68219252 -102.51492443 207.68219252 -104.3963747 207.6844368 C-109.40770956 207.12865025 -112.65077128 205.50085537 -116.0625 201.8125 C-118.36884138 198.39569796 -118.87880992 195.9906964 -118.69908142 191.97251892 C-118.66115006 191.0896071 -118.62321871 190.20669527 -118.58413792 189.29702854 C-118.53566684 188.33267856 -118.48719576 187.36832857 -118.43725586 186.37475586 C-118.36509684 184.84756754 -118.36509684 184.84756754 -118.29148006 183.28952694 C-117.66099653 170.61711677 -116.70926817 157.96765435 -115.75390625 145.31640625 C-115.55822961 142.70044296 -115.36267018 140.0844709 -115.16722107 137.4684906 C-114.76072912 132.0369636 -114.35079243 126.60570386 -113.93920898 121.17456055 C-113.4652361 114.91891971 -112.99922285 108.66271914 -112.53678185 102.4062162 C-112.08745018 96.33220807 -111.63041016 90.25880315 -111.17045403 84.18559074 C-110.97726781 81.62178078 -110.78630803 79.057802 -110.59765816 76.49365425 C-110.33415629 72.92174833 -110.06185242 69.35061636 -109.78735352 65.77954102 C-109.71195847 64.73169937 -109.63656342 63.68385773 -109.55888367 62.60426331 C-108.43700175 48.3455534 -108.43700175 48.3455534 -104.3125 43.375 C-100.1651552 40.03689321 -96.54177609 40.17650234 -91.45703125 40.21484375 C-90.39798836 40.21696617 -90.39798836 40.21696617 -89.31755066 40.21913147 C-87.06582374 40.22472236 -84.81419679 40.23727312 -82.5625 40.25 C-81.03450665 40.25501618 -79.50651173 40.25957888 -77.97851562 40.26367188 C-74.23563865 40.2746888 -70.49283627 40.29194713 -66.75 40.3125 C-66.76885254 39.51803467 -66.78770508 38.72356934 -66.80712891 37.9050293 C-66.98613978 24.98969005 -63.62312411 14.72258694 -54.75 5.15625 C-39.60807592 -9.33673448 -17.68054241 -10.81314263 0 0 Z M-98.75 52.3125 C-99.16680827 54.2018784 -99.16680827 54.2018784 -99.28076172 56.40222168 C-99.34793396 57.25929718 -99.4151062 58.11637268 -99.48431396 58.99942017 C-99.54878723 59.94256073 -99.6132605 60.88570129 -99.6796875 61.85742188 C-99.79234955 63.34603226 -99.79234955 63.34603226 -99.9072876 64.86471558 C-100.15522808 68.1696444 -100.39009275 71.47537127 -100.625 74.78125 C-100.79590114 77.09271148 -100.96762607 79.40411219 -101.14013672 81.7154541 C-101.59459538 87.83369622 -102.0380765 93.95268673 -102.47924805 100.07189941 C-102.92258276 106.19683438 -103.37560115 112.32105076 -103.828125 118.4453125 C-104.3401824 125.38222254 -104.85132505 132.3191881 -105.35498047 139.25671387 C-105.43229401 140.32053535 -105.50960754 141.38435684 -105.58926392 142.48041534 C-105.74212569 144.58542452 -105.89461766 146.69046059 -106.04672241 148.7955246 C-106.44792559 154.3124716 -106.86762594 159.8273778 -107.31152344 165.34106445 C-107.4042453 166.50367043 -107.49696716 167.6662764 -107.59249878 168.86411285 C-107.76968946 171.0746704 -107.95005645 173.28497674 -108.13430786 175.49495697 C-108.51691271 180.28391502 -108.84508912 185.07393897 -108.99267578 189.87634277 C-109.01951447 190.66118797 -109.04635315 191.44603317 -109.07400513 192.25466156 C-108.88105973 194.359494 -108.88105973 194.359494 -107.64804173 196.06595039 C-104.81463503 197.92680622 -102.50895402 197.69030411 -99.13865662 197.69345093 C-98.12624919 197.70047089 -98.12624919 197.70047089 -97.09338909 197.70763266 C-94.82695335 197.71961926 -92.56111819 197.71011164 -90.29467773 197.70068359 C-88.67188157 197.70474765 -87.04908818 197.71008859 -85.42630005 197.71661377 C-81.01525829 197.73031194 -76.60442659 197.72497874 -72.19338107 197.71547651 C-67.58318426 197.70789414 -62.97300573 197.71492144 -58.36280823 197.71963501 C-50.62115236 197.72509617 -42.8795823 197.71789094 -35.13793945 197.70361328 C-26.1781955 197.68728031 -17.21865627 197.6925785 -8.25891727 197.7090925 C-0.57479484 197.72269025 7.10926584 197.7246356 14.79339641 197.71677649 C19.38660124 197.71209128 23.97970971 197.71149843 28.5729084 197.72138596 C32.88951237 197.73002873 37.20585137 197.72408329 41.52242661 197.70670319 C43.10995353 197.70272414 44.69750262 197.70389649 46.28502083 197.71049118 C48.44553207 197.71864118 50.60518435 197.70846607 52.76564026 197.69345093 C53.97666696 197.69231985 55.18769365 197.69118877 56.43541813 197.69002342 C57.36423015 197.56544069 58.29304216 197.44085796 59.25 197.3125 C61.91619145 193.31321282 61.33489743 190.08277682 61.0546875 185.47265625 C60.97841629 184.04530907 60.97841629 184.04530907 60.90060425 182.58912659 C60.03973001 167.46538836 58.77802231 152.36373599 57.5748291 137.26428223 C57.24626121 133.13018768 56.92222994 128.99573781 56.59765625 124.86132812 C55.95399761 116.67355341 55.30256185 108.48641476 54.64807129 100.29949951 C54.30614695 96.02087927 53.96699018 91.74204345 53.62827492 87.46316814 C53.35781696 84.05268525 53.08541619 80.6423595 52.81249619 77.23207283 C52.68381873 75.61994276 52.55586359 74.00775485 52.42868423 72.39550591 C52.25253453 70.16462323 52.07361732 67.9339784 51.89404297 65.70336914 C51.74320755 63.80972374 51.74320755 63.80972374 51.58932495 61.87782288 C51.50836675 55.65729182 51.50836675 55.65729182 49.25 50.3125 C47.03144736 50.22466458 44.81011504 50.20555391 42.58984375 50.21484375 C41.92537735 50.2162587 41.26091095 50.21767365 40.5763092 50.21913147 C38.44666101 50.22474482 36.31711661 50.23729946 34.1875 50.25 C32.74674631 50.25501329 31.30599097 50.25957649 29.86523438 50.26367188 C26.32678898 50.27471855 22.78840461 50.29199208 19.25 50.3125 C19.1418134 52.89695773 19.06262763 55.47687352 19 58.0625 C18.96648437 58.79210937 18.93296875 59.52171875 18.8984375 60.2734375 C18.83245193 63.90264382 18.86603606 65.84252814 21.203125 68.703125 C22.21632813 69.49976563 22.21632813 69.49976563 23.25 70.3125 C24.83877137 73.49004275 24.52508393 76.84644243 24.25 80.3125 C23.07986774 83.7328866 22.37689277 84.22790482 19.25 86.3125 C17.12890625 86.578125 17.12890625 86.578125 14.8125 86.5625 C14.05066406 86.56765625 13.28882813 86.5728125 12.50390625 86.578125 C10.00352471 86.28345265 8.39494292 85.61161575 6.25 84.3125 C3.91180152 81.27284198 3.89706455 78.04218476 3.98828125 74.28125 C4.36821788 71.42321927 5.4837114 69.55432784 7.25 67.3125 C8.24 66.8175 8.24 66.8175 9.25 66.3125 C9.25 61.0325 9.25 55.7525 9.25 50.3125 C-12.53 50.3125 -34.31 50.3125 -56.75 50.3125 C-56.75 55.5925 -56.75 60.8725 -56.75 66.3125 C-55.1 67.9625 -53.45 69.6125 -51.75 71.3125 C-50.83795712 74.7460732 -51.0611005 77.83953555 -51.75 81.3125 C-53.6875 84.4375 -53.6875 84.4375 -56.75 86.3125 C-61.52278598 87.11515659 -66.56981 86.92511875 -70.75 84.3125 C-72.83276276 79.98676196 -72.02282378 74.44576802 -70.9375 69.9375 C-70.545625 69.07125 -70.15375 68.205 -69.75 67.3125 C-68.76 66.9825 -67.77 66.6525 -66.75 66.3125 C-66.75 61.0325 -66.75 55.7525 -66.75 50.3125 C-70.98610959 50.26662156 -75.22135957 50.22678814 -79.45751953 50.20263672 C-80.89895547 50.19257037 -82.34037095 50.1789162 -83.78173828 50.16162109 C-85.85193934 50.13739988 -87.92187076 50.12602359 -89.9921875 50.1171875 C-91.2385498 50.10671387 -92.48491211 50.09624023 -93.76904297 50.08544922 C-96.86771631 49.99597508 -96.86771631 49.99597508 -98.75 52.3125 Z " fill="#DBDEE1" transform="translate(535.75,282.6875)"/>
<path d="M0 0 C6.09100954 4.87280763 10.26750816 10.89656713 12.53125 18.375 C13.02625 24.81 13.02625 24.81 13.53125 31.375 C-8.24875 31.375 -30.02875 31.375 -52.46875 31.375 C-52.46875 18.88413122 -51.36633715 11.36818435 -42.69140625 2.3203125 C-30.63322584 -8.23324434 -13.3191891 -8.76706118 0 0 Z " fill="#FEFEFE" transform="translate(531.46875,291.625)"/>
<path d="M0 0 C2.45650135 1.42506975 3.99181597 2.94032407 6 5 C6.53625 4.731875 7.0725 4.46375 7.625 4.1875 C8.40875 3.795625 9.1925 3.40375 10 3 C10.886875 2.46375 11.77375 1.9275 12.6875 1.375 C18.09362408 -0.8690515 22.77231288 -0.71454115 28.3125 1.0625 C32.5921352 4.1478184 34.33411179 8.00233538 36 13 C36.08397157 15.35680213 36.10728187 17.71594081 36.09765625 20.07421875 C36.0962413 20.7580513 36.09482635 21.44188385 36.09336853 22.1464386 C36.08777876 24.32683722 36.07522822 26.50713251 36.0625 28.6875 C36.05748367 30.16731622 36.052921 31.64713406 36.04882812 33.12695312 C36.03781271 36.75133557 36.02055512 40.3756577 36 44 C32.04 44 28.08 44 24 44 C23.98541748 43.10692139 23.97083496 42.21384277 23.95581055 41.29370117 C23.89472923 37.97782722 23.82057522 34.66278101 23.73754883 31.34741211 C23.70430999 29.91295372 23.67627465 28.47836487 23.65356445 27.04370117 C23.61999729 24.98039193 23.56768587 22.91827697 23.51171875 20.85546875 C23.48553467 19.61434326 23.45935059 18.37321777 23.43237305 17.09448242 C23.23882344 14.04505939 23.23882344 14.04505939 21.68676758 12.06762695 C19.83967846 10.68203377 19.83967846 10.68203377 16.5 11.0625 C13.05149584 11.67932568 13.05149584 11.67932568 11.31323242 13.65136719 C9.5970897 16.72057949 9.56800906 19.00760124 9.48828125 22.515625 C9.45283203 23.76601563 9.41738281 25.01640625 9.38085938 26.3046875 C9.35830078 27.60664062 9.33574219 28.90859375 9.3125 30.25 C9.27833984 31.56742188 9.24417969 32.88484375 9.20898438 34.2421875 C9.12649294 37.49470678 9.0573433 40.74695596 9 44 C5.37 44 1.74 44 -2 44 C-2.01981934 43.10692139 -2.03963867 42.21384277 -2.06005859 41.29370117 C-2.13818698 37.97799292 -2.22487971 34.66273838 -2.31738281 31.34741211 C-2.35564866 29.91292932 -2.39050581 28.47835135 -2.421875 27.04370117 C-2.46757862 24.98061122 -2.52556193 22.91817505 -2.5859375 20.85546875 C-2.6173584 19.61434326 -2.6487793 18.37321777 -2.68115234 17.09448242 C-2.77399209 13.83363899 -2.77399209 13.83363899 -5 11 C-7.9149255 10.4161804 -7.9149255 10.4161804 -11 11 C-13.97561471 13.21588329 -14.89928198 14.42506047 -15.54589844 18.11621094 C-15.5668457 19.31020508 -15.58779297 20.50419922 -15.609375 21.734375 C-15.64160156 23.02988281 -15.67382812 24.32539062 -15.70703125 25.66015625 C-15.72177469 27.02343302 -15.73609222 28.38671445 -15.75 29.75 C-15.77816814 31.12894376 -15.80809678 32.50785275 -15.83984375 33.88671875 C-15.91056725 37.25787216 -15.96325504 40.6283328 -16 44 C-19.96 44 -23.92 44 -28 44 C-28 29.81 -28 15.62 -28 1 C-24.37 1 -20.74 1 -17 1 C-16.67 2.32 -16.34 3.64 -16 5 C-15.21625 4.360625 -14.4325 3.72125 -13.625 3.0625 C-9.21610562 -0.4016313 -5.51617662 -0.86854372 0 0 Z " fill="#C0D0BA" transform="translate(352,553)"/>
<path d="M0 0 C1.17046875 0.12890625 2.3409375 0.2578125 3.546875 0.390625 C4.43890625 0.50921875 5.3309375 0.6278125 6.25 0.75 C4.44155531 3.94746095 2.67309308 6.54554553 0 9.0625 C-5.68113111 14.57583398 -10.71656481 20.64886644 -15.75 26.75 C-14.44339834 29.49102715 -12.99895483 31.95966415 -11.24609375 34.4375 C-10.75657227 35.13093506 -10.26705078 35.82437012 -9.76269531 36.53881836 C-9.24288086 37.2685083 -8.72306641 37.99819824 -8.1875 38.75 C-7.39037598 39.87643921 -7.39037598 39.87643921 -6.57714844 41.02563477 C-2.60172139 46.61973074 1.49673913 52.10528253 5.703125 57.52734375 C7.25 59.75 7.25 59.75 7.25 61.75 C2.50893779 62.96547472 -2.16402716 63.78009989 -6.75 61.75 C-11.66444923 57.076519 -14.86975574 50.91568053 -18.26171875 45.10888672 C-20.43715812 41.66087242 -23.00623401 38.75916002 -25.75 35.75 C-29.61221873 39.3113335 -32.08859113 42.23184449 -32.5546875 47.58984375 C-32.60715299 49.28841405 -32.63016919 50.98812748 -32.625 52.6875 C-32.645625 53.56212891 -32.66625 54.43675781 -32.6875 55.33789062 C-32.73420953 57.47485152 -32.74572934 59.61253294 -32.75 61.75 C-36.38 61.75 -40.01 61.75 -43.75 61.75 C-43.75 41.62 -43.75 21.49 -43.75 0.75 C-40.12 0.75 -36.49 0.75 -32.75 0.75 C-32.42 9.66 -32.09 18.57 -31.75 27.75 C-25.14366289 20.68805344 -18.70087675 13.66350954 -12.6875 6.08984375 C-11.7284375 4.93162109 -11.7284375 4.93162109 -10.75 3.75 C-10.14671875 2.98300781 -9.5434375 2.21601562 -8.921875 1.42578125 C-5.82311708 -0.96516686 -3.81611196 -0.45793344 0 0 Z " fill="#B4C5D5" transform="translate(556.75,535.25)"/>
<path d="M0 0 C3.31008096 1.79642585 4.77257655 3.24638004 6.1875 6.75 C4.5375 9.06 2.8875 11.37 1.1875 13.75 C0.548125 13.481875 -0.09125 13.21375 -0.75 12.9375 C-1.760625 12.545625 -2.77125 12.15375 -3.8125 11.75 C-4.47894531 11.46253906 -5.14539063 11.17507813 -5.83203125 10.87890625 C-11.75689509 8.54424012 -15.79354079 8.7721387 -21.8125 10.75 C-22.1425 12.73 -22.4725 14.71 -22.8125 16.75 C-18.41770066 20.78058945 -12.47034074 22.05282051 -6.8984375 23.79296875 C-0.23874438 26.06522253 4.0024279 29.3798558 7.1875 35.75 C7.68988635 42.20373238 8.13191685 48.30942504 4.1875 53.75 C-1.03178624 59.12279466 -7.87784381 60.88467139 -15.1875 61.1875 C-22.80086606 60.97334062 -29.88352543 58.55095621 -35.8125 53.75 C-35.28180939 49.92902761 -34.31548434 47.68828597 -31.8125 44.75 C-28.72258394 45.2181691 -26.4572504 45.92414196 -23.625 47.3125 C-19.18455886 49.29901314 -14.59453088 49.36677785 -9.8125 48.75 C-7.57607275 47.80762508 -7.57607275 47.80762508 -5.8125 46.75 C-5.47869186 43.37563814 -5.47869186 43.37563814 -5.8125 39.75 C-9.52058161 35.98487098 -14.91048777 34.76822499 -19.79296875 33.08789062 C-25.81353518 30.93930807 -31.35418216 28.39251858 -34.8125 22.75 C-36.40478648 17.97314057 -36.80683654 13.29157771 -34.94140625 8.5234375 C-28.09847208 -3.45730626 -11.89525429 -5.66937558 0 0 Z " fill="#C1D0BA" transform="translate(310.8125,537.25)"/>
<path d="M0 0 C3.93089422 2.20637289 6.02876328 3.98716629 7.51342773 8.34716797 C8.44286874 12.20981184 8.66683275 15.47023463 8.6328125 19.43359375 C8.6299826 20.08957047 8.62715271 20.74554718 8.62423706 21.42140198 C8.61315984 23.48946409 8.58808063 25.55707173 8.5625 27.625 C8.55245402 29.03840515 8.54333102 30.45181717 8.53515625 31.86523438 C8.51326184 35.30613394 8.47882051 38.74677252 8.4375 42.1875 C5.1375 42.1875 1.8375 42.1875 -1.5625 42.1875 C-2.2225 40.8675 -2.8825 39.5475 -3.5625 38.1875 C-4.738125 39.1465625 -4.738125 39.1465625 -5.9375 40.125 C-10.6783137 43.84992505 -14.67694061 43.69378468 -20.5625 43.1875 C-24.72220601 41.67487963 -27.47256351 40.14737966 -29.5625 36.1875 C-31.05266894 30.54614614 -30.34741664 27.27717524 -27.5625 22.1875 C-23.23959624 17.01734561 -17.97650618 16.29195259 -11.5625 15.1875 C-8.82987772 14.99171761 -6.30406072 15.02933304 -3.5625 15.1875 C-4.2225 13.2075 -4.8825 11.2275 -5.5625 9.1875 C-12.28593877 7.8957282 -16.29421858 8.48565456 -22.5625 11.1875 C-23.5525 11.1875 -24.5425 11.1875 -25.5625 11.1875 C-27.3125 8.875 -27.3125 8.875 -28.5625 6.1875 C-27.5625 3.1875 -27.5625 3.1875 -25.8203125 2.0546875 C-25.11648438 1.72726562 -24.41265625 1.39984375 -23.6875 1.0625 C-22.98882812 0.72992187 -22.29015625 0.39734375 -21.5703125 0.0546875 C-14.82349082 -2.85930941 -6.70069197 -3.26316226 0 0 Z " fill="#C1D0BB" transform="translate(424.5625,554.8125)"/>
<path d="M0 0 C3.50530886 2.76201445 5.23744634 6.12640151 6.62109375 10.27734375 C6.70506532 12.63414588 6.72837562 14.99328456 6.71875 17.3515625 C6.71733505 18.03539505 6.7159201 18.7192276 6.71446228 19.42378235 C6.70887251 21.60418097 6.69632197 23.78447626 6.68359375 25.96484375 C6.67857742 27.44465997 6.67401475 28.92447781 6.66992188 30.40429688 C6.65890646 34.02867932 6.64164887 37.65300145 6.62109375 41.27734375 C2.99109375 41.27734375 -0.63890625 41.27734375 -4.37890625 41.27734375 C-4.70890625 39.95734375 -5.03890625 38.63734375 -5.37890625 37.27734375 C-6.14203125 37.91671875 -6.90515625 38.55609375 -7.69140625 39.21484375 C-12.33941381 42.78191932 -16.73601199 42.78945573 -22.37890625 42.27734375 C-26.33611576 41.00805014 -28.53346296 39.49096334 -30.81640625 36.08984375 C-32.54056047 32.656024 -32.78191876 29.95449184 -32.046875 26.19921875 C-30.43885073 21.57262262 -27.51034345 18.97546457 -23.44140625 16.46484375 C-17.77544467 14.31481369 -11.362996 14.51803529 -5.37890625 14.27734375 C-6.15370361 11.28581793 -6.15370361 11.28581793 -7.37890625 8.27734375 C-14.85968927 5.78374941 -20.53851652 8.1943512 -27.37890625 11.27734375 C-29.00390625 8.52734375 -29.00390625 8.52734375 -30.37890625 5.27734375 C-29.55028369 2.60958333 -28.77251356 1.53138512 -26.41796875 0.01171875 C-17.74591828 -3.52445717 -8.42621304 -4.92259015 0 0 Z " fill="#B4C5D6" transform="translate(736.37890625,555.72265625)"/>
<path d="M0 0 C3.61750107 3.38357491 6.8616586 7.10513199 8 12 C8 15.3 8 18.6 8 22 C-1.57 22 -11.14 22 -21 22 C-18.76689217 28.62661619 -18.76689217 28.62661619 -15.75 30.9375 C-9.20535522 33.46611276 -4.13090394 31.58143324 2 29 C3.65 31.31 5.3 33.62 7 36 C5.75443908 36.81928886 4.50333365 37.63015186 3.25 38.4375 C2.55390625 38.88996094 1.8578125 39.34242188 1.140625 39.80859375 C-4.16593334 42.76206144 -10.08067061 42.46244761 -16 42 C-21.90296425 40.16137179 -26.81736976 37.29083879 -30.26171875 32.09765625 C-33.72786922 25.37210814 -34.40704259 17.97044038 -32.33984375 10.66796875 C-29.70815591 4.70964519 -25.19833806 0.90171452 -19.6875 -2.375 C-12.74647484 -3.9891919 -6.20396327 -3.69851656 0 0 Z " fill="#B4C5D5" transform="translate(596,556)"/>
<path d="M0 0 C3.96 0 7.92 0 12 0 C16.10366542 9.84879702 19.5061278 19.9215225 23 30 C26.3 20.1 29.6 10.2 33 0 C36.96 0 40.92 0 45 0 C42.46553651 8.9858251 39.3239008 17.73059529 36.12182617 26.49536133 C35.49899191 28.20665013 34.88147212 29.91988254 34.26928711 31.63500977 C25.97172897 54.87928039 25.97172897 54.87928039 18.1875 59.5625 C13.75998886 61.45511114 9.75404419 61.29712776 5 61 C5 57.7 5 54.4 5 51 C6.258125 50.938125 7.51625 50.87625 8.8125 50.8125 C12.08281467 50.40081145 12.74155721 50.28193759 15.0625 47.75 C16.99538849 42.08019378 13.75680821 36.55432146 11.62109375 31.26953125 C11.28956802 30.43789963 10.9580423 29.60626801 10.61647034 28.74943542 C9.56084487 26.10215783 8.49973032 23.45713365 7.4375 20.8125 C6.37200305 18.1570387 5.30779053 15.50110119 4.24781799 12.84342957 C3.58896822 11.19164344 2.92689654 9.54113815 2.26133728 7.89204407 C0 2.22507512 0 2.22507512 0 0 Z " fill="#B4C5D5" transform="translate(657,554)"/>
<path d="M0 0 C5.11762818 2.65358498 8.17705942 5.53117826 10 11 C10.0846817 13.51368055 10.11601885 15.99869374 10.09765625 18.51171875 C10.0962413 19.23994339 10.09482635 19.96816803 10.09336853 20.71846008 C10.08777659 23.04151539 10.07522562 25.36447388 10.0625 27.6875 C10.05748396 29.26367048 10.05292123 30.83984248 10.04882812 32.41601562 C10.0378098 36.27738098 10.02055074 40.13867408 10 44 C6.37 44 2.74 44 -1 44 C-1.01458252 43.17798096 -1.02916504 42.35596191 -1.04418945 41.5090332 C-1.11876333 37.77638677 -1.21539512 34.04462541 -1.3125 30.3125 C-1.33505859 29.01892578 -1.35761719 27.72535156 -1.38085938 26.39257812 C-1.4340332 24.52182617 -1.4340332 24.52182617 -1.48828125 22.61328125 C-1.51446533 21.46641846 -1.54064941 20.31955566 -1.56762695 19.13793945 C-2.04489842 15.67415057 -2.83256926 13.73279277 -5 11 C-8.45728358 10.24988633 -8.45728358 10.24988633 -12 11 C-14.36497439 12.86708505 -15.66030715 14.32061431 -17 17 C-17.15411106 19.0307477 -17.24982453 21.06606421 -17.31640625 23.1015625 C-17.35830078 24.31328125 -17.40019531 25.525 -17.44335938 26.7734375 C-17.48267578 28.04445313 -17.52199219 29.31546875 -17.5625 30.625 C-17.60568359 31.90375 -17.64886719 33.1825 -17.69335938 34.5 C-17.7996981 37.66653082 -17.9003767 40.83325079 -18 44 C-21.96 44 -25.92 44 -30 44 C-30 29.81 -30 15.62 -30 1 C-26.37 1 -22.74 1 -19 1 C-18.67 2.65 -18.34 4.3 -18 6 C-17.071875 5.195625 -16.14375 4.39125 -15.1875 3.5625 C-10.63193029 -0.38566042 -5.83237353 -0.72780046 0 0 Z " fill="#B4C5D6" transform="translate(641,553)"/>
<path d="M0 0 C0 4.62 0 9.24 0 14 C4.29 14 8.58 14 13 14 C13 17.3 13 20.6 13 24 C9.04 24 5.08 24 1 24 C1.14037638 27.45863518 1.2870459 30.91680137 1.4375 34.375 C1.47681641 35.35984375 1.51613281 36.3446875 1.55664062 37.359375 C1.59853516 38.30039062 1.64042969 39.24140625 1.68359375 40.2109375 C1.72025146 41.08024902 1.75690918 41.94956055 1.79467773 42.84521484 C1.87401544 45.0483262 1.87401544 45.0483262 3 47 C6.63 47 10.26 47 14 47 C14 49.97 14 52.94 14 56 C9.19067814 58.56497166 4.30854686 58.55297363 -1 58 C-5.20362508 56.47140906 -7.7542389 54.90053244 -10 51 C-11.01113871 47.81406575 -11.11616484 44.90967059 -11.09765625 41.578125 C-11.09443359 40.55332031 -11.09121094 39.52851562 -11.08789062 38.47265625 C-11.07951172 37.40917969 -11.07113281 36.34570312 -11.0625 35.25 C-11.05798828 34.17105469 -11.05347656 33.09210937 -11.04882812 31.98046875 C-11.03705727 29.32025617 -11.02061399 26.66015635 -11 24 C-12.98 24 -14.96 24 -17 24 C-17 20.7 -17 17.4 -17 14 C-15.02 14 -13.04 14 -11 14 C-11 10.37 -11 6.74 -11 3 C-2.25 0 -2.25 0 0 0 Z " fill="#C0D0BC" transform="translate(491,540)"/>
<path d="M0 0 C1.8871875 0.0309375 1.8871875 0.0309375 3.8125 0.0625 C3.8125 4.0225 3.8125 7.9825 3.8125 12.0625 C2.430625 11.959375 1.04875 11.85625 -0.375 11.75 C-4.23026221 11.73785744 -4.97402136 11.89794355 -8.1875 14.375 C-11.00976901 18.16742398 -11.33335574 21.00060488 -11.50390625 25.60546875 C-11.54580078 26.67861328 -11.58769531 27.75175781 -11.63085938 28.85742188 C-11.68983398 30.53674805 -11.68983398 30.53674805 -11.75 32.25 C-11.79318359 33.38115234 -11.83636719 34.51230469 -11.88085938 35.67773438 C-11.9869901 38.47251025 -12.08775397 41.26748898 -12.1875 44.0625 C-15.8175 44.0625 -19.4475 44.0625 -23.1875 44.0625 C-23.1875 29.8725 -23.1875 15.6825 -23.1875 1.0625 C-19.8875 1.0625 -16.5875 1.0625 -13.1875 1.0625 C-12.8575 3.0425 -12.5275 5.0225 -12.1875 7.0625 C-11.424375 6.093125 -10.66125 5.12375 -9.875 4.125 C-7.03813902 0.52141983 -4.49636856 -0.07371096 0 0 Z " fill="#C0D0BA" transform="translate(465.1875,552.9375)"/>
<path d="M0 0 C1.8871875 0.0309375 1.8871875 0.0309375 3.8125 0.0625 C4.22918469 4.31268379 4.25272082 6.41592568 1.8125 10 C-2.27186307 12.80799961 -4.30916689 12.62230872 -9.1875 12.0625 C-11.1875 10.0625 -11.1875 10.0625 -11.5625 7.125 C-11.1875 4.0625 -11.1875 4.0625 -9.375 2.25 C-6.1428608 0.49541015 -3.62015813 -0.05934685 0 0 Z " fill="#FDFEFE" transform="translate(727.1875,576.9375)"/>
<path d="M0 0 C1.8871875 0.0309375 1.8871875 0.0309375 3.8125 0.0625 C4.41800459 7.32855505 4.41800459 7.32855505 1.75 10.5625 C-1.85958369 12.40569167 -4.18199813 12.50755576 -8.1875 12.0625 C-9.1775 11.4025 -10.1675 10.7425 -11.1875 10.0625 C-11.625 7.125 -11.625 7.125 -11.1875 4.0625 C-7.89823606 0.77323606 -4.5486785 -0.0745685 0 0 Z " fill="#FDFDFD" transform="translate(417.1875,576.9375)"/>
<path d="M0 0 C2.12890625 0.45703125 2.12890625 0.45703125 4.69140625 2.70703125 C6.12890625 5.45703125 6.12890625 5.45703125 6.12890625 9.45703125 C0.18890625 9.45703125 -5.75109375 9.45703125 -11.87109375 9.45703125 C-10.3340355 1.77174 -7.65015391 -0.34028691 0 0 Z " fill="#FDFDFE" transform="translate(586.87109375,561.54296875)"/>
<path d="M0 0 C0.625 1.8125 0.625 1.8125 1 4 C0.01 5.485 0.01 5.485 -1 7 C-4.875 6.125 -4.875 6.125 -6 5 C-6.04063832 3.33382885 -6.042721 1.66611905 -6 0 C-3.50907189 -1.24546405 -2.58919267 -0.7767578 0 0 Z " fill="#FCFCFC" transform="translate(477,356)"/>
<path d="M0 0 C2.0625 0.4375 2.0625 0.4375 4 1 C4.33 2.65 4.66 4.3 5 6 C3.125 7.0625 3.125 7.0625 1 8 C0.34 7.67 -0.32 7.34 -1 7 C-1.04254356 5.00045254 -1.04080783 2.99958364 -1 1 C-0.67 0.67 -0.34 0.34 0 0 Z " fill="#FCFCFD" transform="translate(548,355)"/>
</svg>
